<svg id="Layer_1" data-name="Layer 1" xmlns="http://www.w3.org/2000/svg" width="192" height="192" viewBox="0 0 192 192"><defs><style>.cls-1{fill:#d1e7ed;}.cls-2{fill:#4d4d4d;}</style></defs><circle class="cls-1" cx="96" cy="95" r="55.97"/><circle class="cls-2" cx="100.62" cy="50.11" r="15.03"/><circle class="cls-2" cx="78.46" cy="135.65" r="11.74"/><circle class="cls-2" cx="97.97" cy="96" r="25.25"/><circle class="cls-2" cx="63.67" cy="67.9" r="8.45"/><circle class="cls-2" cx="132.06" cy="74.87" r="8.45"/><circle class="cls-2" cx="42.15" cy="74.87" r="3.64"/><circle class="cls-2" cx="58.86" cy="88.53" r="3.64"/><circle class="cls-2" cx="64.56" cy="106.51" r="3.64"/><circle class="cls-2" cx="52.08" cy="124.3" r="3.64"/><circle class="cls-2" cx="124.79" cy="127.94" r="3.64"/><circle class="cls-2" cx="149.16" cy="101.5" r="3.64"/><circle class="cls-2" cx="76.35" cy="41.86" r="3.64"/><circle class="cls-2" cx="135.7" cy="96.69" r="3.64"/><circle class="cls-2" cx="47.41" cy="108.33" r="1.82"/><circle class="cls-2" cx="36.7" cy="96.05" r="1.82"/><circle class="cls-2" cx="27.8" cy="116.14" r="0.88"/><circle class="cls-2" cx="26.92" cy="81.26" r="0.88"/><circle class="cls-2" cx="141.3" cy="42.74" r="0.88"/><circle class="cls-2" cx="165.08" cy="87.55" r="0.88"/><circle class="cls-2" cx="75.46" cy="30.95" r="0.88"/><circle class="cls-2" cx="64.56" cy="161.05" r="0.88"/><circle class="cls-2" cx="151.91" cy="135.7" r="0.88"/><circle class="cls-2" cx="155.89" cy="67.85" r="1.82"/><circle class="cls-2" cx="161.39" cy="116.98" r="1.82"/><circle class="cls-2" cx="145.48" cy="123.96" r="1.82"/><circle class="cls-2" cx="137.52" cy="113.54" r="1.82"/><circle class="cls-2" cx="129.36" cy="151.18" r="0.93"/><circle class="cls-2" cx="107.2" cy="140.71" r="5.5"/><circle class="cls-2" cx="40.33" cy="140.66" r="1.82"/><circle class="cls-2" cx="97.92" cy="166.21" r="1.82"/><circle class="cls-2" cx="47.41" cy="48.19" r="1.82"/><circle class="cls-2" cx="108.63" cy="25.79" r="1.82"/></svg>