<svg id="Layer_1" data-name="Layer 1" xmlns="http://www.w3.org/2000/svg" width="192" height="192" viewBox="0 0 192 192"><defs><style>.cls-1{fill:#d1e7ed;}.cls-2{fill:#4d4d4d;}</style></defs><circle class="cls-1" cx="96" cy="95" r="55.97"/><path class="cls-2" d="M71,122.16H58.46a2,2,0,0,1-2-2V100.06a2,2,0,0,1,2-2H71a2,2,0,0,1,2,2v20.07A2,2,0,0,1,71,122.16ZM58.46,99a1,1,0,0,0-1,1v20.07a1,1,0,0,0,1,1H71a1,1,0,0,0,1-1V100.06a1,1,0,0,0-1-1Z"/><path class="cls-2" d="M74.52,156.52H62a2,2,0,0,1-2-2V134.41a2,2,0,0,1,2-2H74.52a2,2,0,0,1,2,2v20.07A2,2,0,0,1,74.52,156.52ZM62,133.37a1,1,0,0,0-1,1v20.07a1,1,0,0,0,1,1H74.52a1,1,0,0,0,1-1V134.41a1,1,0,0,0-1-1Z"/><path class="cls-2" d="M135.3,109H122.76a2,2,0,0,1-2-2V86.85a2,2,0,0,1,2-2H135.3a2,2,0,0,1,2,2v20.07A2,2,0,0,1,135.3,109ZM122.76,85.81a1,1,0,0,0-1,1v20.07a1,1,0,0,0,1,1H135.3a1,1,0,0,0,1-1V86.85a1,1,0,0,0-1-1Z"/><path class="cls-2" d="M153.79,156.52H141.26a2,2,0,0,1-2-2V134.41a2,2,0,0,1,2-2h12.53a2,2,0,0,1,2,2v20.07A2,2,0,0,1,153.79,156.52Zm-12.53-23.15a1,1,0,0,0-1,1v20.07a1,1,0,0,0,1,1h12.53a1,1,0,0,0,1-1V134.41a1,1,0,0,0-1-1Z"/><path class="cls-2" d="M119.44,64.91H106.91a2,2,0,0,1-2-2V42.81a2,2,0,0,1,2-2h12.53a2,2,0,0,1,2,2V62.88A2,2,0,0,1,119.44,64.91ZM106.91,41.77a1,1,0,0,0-1,1V62.88a1,1,0,0,0,1,1h12.53a1,1,0,0,0,1-1V42.81a1,1,0,0,0-1-1Z"/><path class="cls-2" d="M156.44,83.41H143.9a2,2,0,0,1-2-2V61.3a2,2,0,0,1,2-2h12.54a2,2,0,0,1,2,2V81.37A2,2,0,0,1,156.44,83.41ZM143.9,60.27a1,1,0,0,0-1,1V81.37a1,1,0,0,0,1,1h12.54a1,1,0,0,0,1-1V61.3a1,1,0,0,0-1-1Z"/><path class="cls-2" d="M68.36,92.22H55.82a2,2,0,0,1-2-2V70.11a2,2,0,0,1,2-2H68.36a2,2,0,0,1,2,2V90.18A2,2,0,0,1,68.36,92.22ZM55.82,69.07a1,1,0,0,0-1,1V90.18a1,1,0,0,0,1,1H68.36a1,1,0,0,0,1-1V70.11a1,1,0,0,0-1-1Z"/><path class="cls-2" d="M48.1,107.19H35.56a2,2,0,0,1-2-2V85.08a2,2,0,0,1,2-2H48.1a2,2,0,0,1,2,2v20.08A2,2,0,0,1,48.1,107.19ZM35.56,84.05a1,1,0,0,0-1,1v20.08a1,1,0,0,0,1,1H48.1a1,1,0,0,0,1-1V85.08a1,1,0,0,0-1-1Z"/><path class="cls-2" d="M88.62,81.65H76.08a2,2,0,0,1-2-2V59.54a2,2,0,0,1,2-2H88.62a2,2,0,0,1,2,2V79.61A2,2,0,0,1,88.62,81.65ZM76.08,58.5a1,1,0,0,0-1,1V79.61a1,1,0,0,0,1,1H88.62a1,1,0,0,0,1-1V59.54a1,1,0,0,0-1-1Z"/><path class="cls-2" d="M80.69,107.19H68.15a2,2,0,0,1-2-2V85.08a2,2,0,0,1,2-2H80.69a2,2,0,0,1,2,2v20.08A2,2,0,0,1,80.69,107.19ZM68.15,84.05a1,1,0,0,0-1,1v20.08a1,1,0,0,0,1,1H80.69a1,1,0,0,0,1-1V85.08a1,1,0,0,0-1-1Z"/><path class="cls-2" d="M142.3,55.63H129.76a2,2,0,0,1-2-2V33.52a2,2,0,0,1,2-2H142.3a2,2,0,0,1,2,2V53.59A2,2,0,0,1,142.3,55.63ZM129.76,32.49a1,1,0,0,0-1,1V53.59a1,1,0,0,0,1,1H142.3a1,1,0,0,0,1-1V33.52a1,1,0,0,0-1-1Z"/><path class="cls-2" d="M66.6,59.63H54.06a2,2,0,0,1-2-2V37.52a2,2,0,0,1,2-2H66.6a2,2,0,0,1,2,2V57.59A2,2,0,0,1,66.6,59.63ZM54.06,36.49a1,1,0,0,0-1,1V57.59a1,1,0,0,0,1,1H66.6a1,1,0,0,0,1-1V37.52a1,1,0,0,0-1-1Z"/><path class="cls-2" d="M106.23,145.07H93.7a2,2,0,0,1-2-2V123a2,2,0,0,1,2-2h12.53a2,2,0,0,1,2,2V143A2,2,0,0,1,106.23,145.07ZM93.7,121.92a1,1,0,0,0-1,1V143a1,1,0,0,0,1,1h12.53a1,1,0,0,0,1-1V123a1,1,0,0,0-1-1Z"/><path class="cls-2" d="M131.77,140.66H119.24a2,2,0,0,1-2-2V118.55a2,2,0,0,1,2-2h12.53a2,2,0,0,1,2,2v20.07A2,2,0,0,1,131.77,140.66Zm-12.53-23.14a1,1,0,0,0-1,1v20.07a1,1,0,0,0,1,1h12.53a1,1,0,0,0,1-1V118.55a1,1,0,0,0-1-1Z"/><rect class="cls-2" x="88.64" y="89.71" width="15.61" height="23.14" rx="1.54"/><path class="cls-2" d="M102.71,113.36H90.17a2,2,0,0,1-2-2V91.25a2,2,0,0,1,2-2h12.54a2,2,0,0,1,2,2v20.07A2,2,0,0,1,102.71,113.36ZM90.17,90.21a1,1,0,0,0-1,1v20.07a1,1,0,0,0,1,1h12.54a1,1,0,0,0,1-1V91.25a1,1,0,0,0-1-1Z"/><rect class="cls-2" x="68.38" y="114.37" width="15.61" height="23.14" rx="1.54"/><path class="cls-2" d="M82.45,138H69.91a2,2,0,0,1-2-2V115.91a2,2,0,0,1,2-2H82.45a2,2,0,0,1,2,2V136A2,2,0,0,1,82.45,138ZM69.91,114.87a1,1,0,0,0-1,1V136a1,1,0,0,0,1,1H82.45a1,1,0,0,0,1-1V115.91a1,1,0,0,0-1-1Z"/><rect class="cls-2" x="131.79" y="92.35" width="15.61" height="23.14" rx="1.54"/><path class="cls-2" d="M145.87,116H133.33a2,2,0,0,1-2-2V93.89a2,2,0,0,1,2-2h12.54a2,2,0,0,1,2,2V114A2,2,0,0,1,145.87,116ZM133.33,92.85a1,1,0,0,0-1,1V114a1,1,0,0,0,1,1h12.54a1,1,0,0,0,1-1V93.89a1,1,0,0,0-1-1Z"/><rect class="cls-2" x="101.85" y="58" width="15.61" height="23.14" rx="1.54"/><path class="cls-2" d="M115.92,81.65H103.38a2,2,0,0,1-2-2V59.54a2,2,0,0,1,2-2h12.54a2,2,0,0,1,2,2V79.61A2,2,0,0,1,115.92,81.65ZM103.38,58.5a1,1,0,0,0-1,1V79.61a1,1,0,0,0,1,1h12.54a1,1,0,0,0,1-1V59.54a1,1,0,0,0-1-1Z"/><rect class="cls-2" x="44.6" y="64.17" width="15.61" height="23.14" rx="1.54"/><path class="cls-2" d="M58.67,87.81H46.13a2,2,0,0,1-2-2V65.71a2,2,0,0,1,2-2H58.67a2,2,0,0,1,2,2V85.78A2,2,0,0,1,58.67,87.81ZM46.13,64.67a1,1,0,0,0-1,1V85.78a1,1,0,0,0,1,1H58.67a1,1,0,0,0,1-1V65.71a1,1,0,0,0-1-1Z"/><path class="cls-2" d="M110.64,101.91H98.1a2,2,0,0,1-2-2V79.8a2,2,0,0,1,2-2h12.54a2,2,0,0,1,2,2V99.87A2,2,0,0,1,110.64,101.91ZM98.1,78.76a1,1,0,0,0-1,1V99.87a1,1,0,0,0,1,1h12.54a1,1,0,0,0,1-1V79.8a1,1,0,0,0-1-1Z"/></svg>