<svg id="Layer_1" data-name="Layer 1" xmlns="http://www.w3.org/2000/svg" width="192" height="192" viewBox="0 0 192 192"><defs><style>.cls-1{fill:#d1e7ed;}.cls-2{fill:#4d4d4d;}</style></defs><circle class="cls-1" cx="96" cy="95" r="55.97"/><path class="cls-2" d="M127.14,73.94,111.85,68c-1.85-.72-1.85-2.58,0-3.3l15.29-5.89a3.61,3.61,0,0,1,2.55,0L145,64.74c1.85.72,1.85,2.58,0,3.3l-15.29,5.9A3.72,3.72,0,0,1,127.14,73.94Z"/><path class="cls-2" d="M76.09,63,50.88,53.26c-3-1.18-3-4.26,0-5.43L76.09,38.1a6.1,6.1,0,0,1,4.21,0l25.21,9.73c3,1.17,3,4.25,0,5.43L80.3,63A6,6,0,0,1,76.09,63Z"/><path class="cls-2" d="M130.09,125l-15.29-5.9c-1.85-.71-1.85-2.58,0-3.29l15.29-5.9a3.72,3.72,0,0,1,2.55,0l15.29,5.9c1.84.71,1.84,2.58,0,3.29L132.64,125A3.61,3.61,0,0,1,130.09,125Z"/><path class="cls-2" d="M103.55,142.79l-8.07-3.11a.88.88,0,0,1,0-1.74l8.07-3.11a1.93,1.93,0,0,1,1.34,0l8.07,3.11a.88.88,0,0,1,0,1.74l-8.07,3.11A1.93,1.93,0,0,1,103.55,142.79Z"/><path class="cls-2" d="M43.64,158.5l-8.06-3.11c-1-.38-1-1.36,0-1.74l8.06-3.11a2,2,0,0,1,1.35,0l8.06,3.11a.88.88,0,0,1,0,1.74L45,158.5A2,2,0,0,1,43.64,158.5Z"/><path class="cls-2" d="M163.8,32.86l-3.88-1.5c-.47-.18-.47-.65,0-.83L163.8,29a.91.91,0,0,1,.65,0l3.88,1.5c.47.18.47.65,0,.83l-3.88,1.5A.91.91,0,0,1,163.8,32.86Z"/><path class="cls-2" d="M68.22,125l-15.29-5.9c-1.85-.71-1.85-2.58,0-3.29l15.29-5.9a3.72,3.72,0,0,1,2.55,0l15.29,5.9c1.84.71,1.84,2.58,0,3.29L70.77,125A3.61,3.61,0,0,1,68.22,125Z"/><path class="cls-2" d="M36.44,85.81l-9.31-3.6c-1.13-.43-1.13-1.57,0-2l9.31-3.6a2.32,2.32,0,0,1,1.56,0l9.32,3.6a1,1,0,0,1,0,2L38,85.81A2.21,2.21,0,0,1,36.44,85.81Z"/><path class="cls-2" d="M155.84,88.73l-11-4.24c-1.33-.51-1.33-1.85,0-2.37l11-4.24a2.65,2.65,0,0,1,1.84,0l11,4.24c1.32.52,1.32,1.86,0,2.37l-11,4.24A2.65,2.65,0,0,1,155.84,88.73Z"/><path class="cls-2" d="M92.65,109.89,52.25,94.31c-4.87-1.88-4.87-6.82,0-8.7L92.65,70a9.65,9.65,0,0,1,6.74,0l40.4,15.58c4.87,1.88,4.87,6.82,0,8.7l-40.4,15.58A9.65,9.65,0,0,1,92.65,109.89Z"/></svg>